<?xml version="1.0" encoding="utf-8"?>
<!-- Svg Vector Icons : http://www.onlinewebfonts.com/icon -->
<!DOCTYPE svg PUBLIC "-//W3C//DTD SVG 1.1//EN" "http://www.w3.org/Graphics/SVG/1.1/DTD/svg11.dtd">
<svg version="1.1" xmlns="http://www.w3.org/2000/svg" xmlns:xlink="http://www.w3.org/1999/xlink" x="0px" y="0px" viewBox="0 0 1000 1000" enable-background="new 0 0 1000 1000" xml:space="preserve">
<metadata> Svg Vector Icons : http://www.onlinewebfonts.com/icon </metadata>
<g><g><path d="M889.3,883.8h-16.7h-4.9v-55.9l0.4,0.5V703.9l-0.4-0.5V482.6H759.6c2.7-26.1,5.1-55.2,6.4-84.9c4.1-93.7,18.1-391.1-251.6-391.1C244.7,6.7,252,255,252,255L266,482.6H147.6v400.2c-0.6,0.6-1,1-1,1h-30.5v14.4H10v95h70H370h305.5h271.3H990v-95l-101.3,0.6L889.3,883.8z M516.1,742.5c-27.4,0-49.6-21.9-49.6-48.9c0-27,22.2-48.9,49.6-48.9c27.4,0,49.6,21.9,49.6,48.9C565.7,720.6,543.5,742.5,516.1,742.5z M576.2,453v29.6H456.1v-31.8c-87.6-27.3-151-109-151-205.5c0-7.2,0.4-14.2,1.1-21.2c58.6-4,261.1-22.4,266.3-87.9c19.2,35.6,121.5,125.1,162,131C725.3,357,661.1,430.2,576.2,453z"/></g><g></g><g></g><g></g><g></g><g></g><g></g><g></g><g></g><g></g><g></g><g></g><g></g><g></g><g></g><g></g></g>
</svg>